  <svg  width="56" height="56" viewBox="0 0 57 56" fill="none" xmlns="http://www.w3.org/2000/svg">
    <circle cx="28.7723" cy="27.2277" r="26.7277" stroke="#F2D7CA" />
    <path d="M6.0584 40.3416L28.7723 0.999999L51.4861 40.3416H6.0584Z" stroke="#F2D7CA" />
    <rect x="1.5" y="0.5" width="54" height="53.4554" stroke="#F2D7CA" />
    <line x1="56.3536" y1="0.353553" x2="1.89811" y2="54.809" stroke="#F2D7CA" />
    <line
      y1="-0.5"
      x2="77.0116"
      y2="-0.5"
      transform="matrix(0.707107 0.707107 0.707107 -0.707107 1.54456 0)"
      stroke="#F2D7CA"
    />
    <path
      fill-rule="evenodd"
      clip-rule="evenodd"
      d="M23.7429 14.7962L38.3198 47.5898L48.7924 47.6259L34.1611 14.7129L23.7429 14.7962Z"
      fill="#36244D"
    />
    <path
      fill-rule="evenodd"
      clip-rule="evenodd"
      d="M22.9506 41.6997C22.9506 45.3848 20.2306 48.373 16.8763 48.373C13.522 48.373 10.8019 45.3848 10.8019 41.6997C10.8019 38.0147 13.522 35.025 16.8763 35.025C20.2306 35.025 22.9506 38.0147 22.9506 41.6997Z"
      fill="#36244D"
    />
  </svg>