<svg width="56" height="56" viewBox="0 0 56 56" fill="none" xmlns="http://www.w3.org/2000/svg">
<path d="M56.5 28C56.5 43.1925 44.3073 55.5 29.2772 55.5C14.2472 55.5 2.05444 43.1925 2.05444 28C2.05444 12.8075 14.2472 0.5 29.2772 0.5C44.3073 0.5 56.5 12.8075 56.5 28Z" stroke="#F2D7CA"/>
<path d="M6.13034 41.5L29.2772 1.00751L52.4241 41.5H6.13034Z" stroke="#F2D7CA"/>
<rect x="1.5" y="0.5" width="55" height="55" stroke="#F2D7CA"/>
<line y1="-0.5" x2="78.8049" y2="-0.5" transform="matrix(-0.70358 0.710616 -0.70358 -0.710616 57 0)" stroke="#F2D7CA"/>
<line y1="-0.5" x2="78.8049" y2="-0.5" transform="matrix(0.70358 0.710616 0.70358 -0.710616 1.55444 0)" stroke="#F2D7CA"/>
<path fill-rule="evenodd" clip-rule="evenodd" d="M23.9329 11.0777L37.3743 41.6191L47.0311 41.6528L33.5395 11L23.9329 11.0777Z" fill="#36244D"/>
<path fill-rule="evenodd" clip-rule="evenodd" d="M23.2023 36.1336C23.2023 39.5656 20.6941 42.3486 17.6011 42.3486C14.5081 42.3486 11.9999 39.5656 11.9999 36.1336C11.9999 32.7016 14.5081 29.9173 17.6011 29.9173C20.6941 29.9173 23.2023 32.7016 23.2023 36.1336Z" fill="#36244D"/>
</svg>
